Normalized EMG Linear Envelopes
nRows=108
nColumns=4

endheader
time	 med_gas_r	  soleus_r	 tib_ant_r	
2.64819	  0.002993	  0.005700	  0.001827	
2.71976	  0.003114	  0.005570	  0.001839	
2.79133	  0.003283	  0.005375	  0.001793	
2.8629	  0.003417	  0.005253	  0.001677	
2.93448	  0.003476	  0.005287	  0.001591	
3.00605	  0.003482	  0.005426	  0.001558	
3.07762	  0.003469	  0.005506	  0.001550	
3.14919	  0.003488	  0.005544	  0.001592	
3.22077	  0.003467	  0.005591	  0.001675	
3.29234	  0.003407	  0.005606	  0.001738	
3.36391	  0.003289	  0.005494	  0.001735	
3.43548	  0.003156	  0.005362	  0.001696	
3.50706	  0.003056	  0.005360	  0.001671	
3.57863	  0.003082	  0.005515	  0.001675	
3.6502	  0.003168	  0.005671	  0.001675	
3.72177	  0.003269	  0.005712	  0.001661	
3.79335	  0.003332	  0.005763	  0.001638	
3.86492	  0.003291	  0.005826	  0.001631	
3.93649	  0.003197	  0.005795	  0.001638	
4.00806	  0.003101	  0.005712	  0.001626	
4.07964	  0.003045	  0.005654	  0.001569	
4.15121	  0.003066	  0.005658	  0.001531	
4.22278	  0.003141	  0.005643	  0.001525	
4.29435	  0.003196	  0.005517	  0.001537	
4.36593	  0.003313	  0.005399	  0.001560	
4.4375	  0.003513	  0.005513	  0.001612	
4.50907	  0.003676	  0.005914	  0.001672	
4.58065	  0.003687	  0.006332	  0.001690	
4.65222	  0.003290	  0.006275	  0.001654	
4.72379	  0.002022	  0.004880	  0.001559	
4.79536	 -0.000584	  0.001360	  0.001429	
4.86694	 -0.004117	 -0.004214	  0.001251	
4.93851	 -0.005811	 -0.009047	  0.001082	
5.01008	  0.001272	 -0.004075	  0.001240	
5.08165	  0.028667	  0.028342	  0.002310	
5.15323	  0.086820	  0.109138	  0.004995	
5.2248	  0.166575	  0.239490	  0.009450	
5.29637	  0.223126	  0.363020	  0.014101	
5.36794	  0.256397	  0.424007	  0.017036	
5.43952	  0.285617	  0.424373	  0.017941	
5.51109	  0.313104	  0.399595	  0.018441	
5.58266	  0.331501	  0.374110	  0.018653	
5.65423	  0.328275	  0.348099	  0.018506	
5.72581	  0.324123	  0.337796	  0.018686	
5.79738	  0.332034	  0.346196	  0.019038	
5.86895	  0.353067	  0.351325	  0.019810	
5.94052	  0.387070	  0.351575	  0.021201	
6.0121	  0.417635	  0.351032	  0.022428	
6.08367	  0.428492	  0.350717	  0.023385	
6.15524	  0.437841	  0.352791	  0.024830	
6.22681	  0.480411	  0.357739	  0.027234	
6.29839	  0.559007	  0.366131	  0.030477	
6.36996	  0.651181	  0.381127	  0.033803	
6.44153	  0.728633	  0.384572	  0.036110	
6.5131	  0.767012	  0.369949	  0.037443	
6.58468	  0.778835	  0.369663	  0.038659	
6.65625	  0.786058	  0.389420	  0.042292	
6.72782	  0.778236	  0.398542	  0.049298	
6.7994	  0.758818	  0.396539	  0.055997	
6.87097	  0.732827	  0.399634	  0.059132	
6.94254	  0.693542	  0.401980	  0.054666	
7.01411	  0.656114	  0.396893	  0.048758	
7.08569	  0.640939	  0.387256	  0.044798	
7.15726	  0.627355	  0.385801	  0.043466	
7.22883	  0.607540	  0.390056	  0.041423	
7.3004	  0.595358	  0.391689	  0.039082	
7.37198	  0.611541	  0.396906	  0.037689	
7.44355	  0.658691	  0.429903	  0.038393	
7.51512	  0.739560	  0.483422	  0.041783	
7.58669	  0.820607	  0.509286	  0.045512	
7.65827	  0.849784	  0.488785	  0.048521	
7.72984	  0.811882	  0.475972	  0.049083	
7.80141	  0.734238	  0.479196	  0.047218	
7.87298	  0.670847	  0.480989	  0.045792	
7.94456	  0.627740	  0.473195	  0.045218	
8.01613	  0.605058	  0.456104	  0.045129	
8.0877	  0.614714	  0.441653	  0.046609	
8.15927	  0.630485	  0.442898	  0.048061	
8.23085	  0.636886	  0.467519	  0.049024	
8.30242	  0.646319	  0.518099	  0.048347	
8.37399	  0.652242	  0.560232	  0.047206	
8.44556	  0.635645	  0.562706	  0.046448	
8.51714	  0.619806	  0.567976	  0.046311	
8.58871	  0.616475	  0.572032	  0.046292	
8.66028	  0.627749	  0.559462	  0.046090	
8.73185	  0.663878	  0.529959	  0.044710	
8.80343	  0.706669	  0.511694	  0.043641	
8.875	  0.738583	  0.504458	  0.042204	
8.94657	  0.753041	  0.517027	  0.041529	
9.01815	  0.751097	  0.537431	  0.042138	
9.08972	  0.743770	  0.554197	  0.043155	
9.16129	  0.716398	  0.563994	  0.043227	
9.23286	  0.669697	  0.557064	  0.041076	
9.30444	  0.626340	  0.548684	  0.038632	
9.37601	  0.594007	  0.538448	  0.039682	
9.44758	  0.587232	  0.522583	  0.047931	
9.51915	  0.605840	  0.522749	  0.062280	
9.59073	  0.631642	  0.531689	  0.076967	
9.6623	  0.638620	  0.536672	  0.082241	
9.73387	  0.628113	  0.538614	  0.082040	
9.80544	  0.627388	  0.544534	  0.077327	
9.87702	  0.624716	  0.538637	  0.070303	
9.94859	  0.557896	  0.498725	  0.061037	
10.0202	  0.420664	  0.405229	  0.051589	
10.0917	  0.260018	  0.280266	  0.041656	
10.1633	  0.130044	  0.167389	  0.032103	
10.2349	  0.049700	  0.088911	  0.023596	
10.3065	  0.011248	  0.041771	  0.019107	
